# AST/ASF file generated using VICON BodyLanguage
# -----------------------------------------------
:version 1.10
:name VICON
:units
  mass 1.0
  length 0.45
  angle deg
:documentation
   .ast/.asf automatically generated from VICON data using
   VICON BodyBuilder and BodyLanguage model FoxedUp or BRILLIANT.MOD
:root
   order TX TY TZ RX RY RZ
   axis XYZ
   position 0 0 0  
   orientation 0 -0 0 
:bonedata
  begin
     id 1 
     name lhipjoint
     direction 0.500677 -0.737119 0.453848 
     length 2.34727 
     axis 0 -0 0  XYZ
  end
  begin
     id 2 
     name lfemur
     direction 0.34202 -0.939693 0  
     length 7.53653  
     axis 0 -0 20  XYZ
    dof rx ry rz
    limits (-160.0 20.0)
           (-70.0 70.0)
           (-60.0 70.0)
  end
  begin
     id 3 
     name ltibia
     direction 0.34202 -0.939693 0   
     length 6.85572   
     axis 0 -0 20   XYZ
    dof rx
    limits (-10.0 170.0)
  end
  begin
     id 4 
     name lfoot
     direction 0.155313 -0.426718 0.890949   
     length 2.18324   
     axis -90 -1.13533e-015 20   XYZ
    dof rx rz
    limits (-45.0 90.0)
           (-70.0 20.0)
  end
  begin
     id 5 
     name ltoes
     direction 1.53474e-011 -4.21647e-011 1   
     length 1.06748   
     axis -90 -1.13533e-015 20   XYZ
    dof rx
    limits (-90.0 20.0)
  end
  begin
     id 6 
     name rhipjoint
     direction -0.632471 -0.659587 0.406111   
     length 2.62319  
     axis 0 -0 0  XYZ 
  end
  begin
     id 7 
     name rfemur
     direction -0.34202 -0.939693 0   
     length 7.21735   
     axis 0 -0 -20   XYZ
    dof rx ry rz
    limits (-160.0 20.0)
           (-70.0 70.0)
           (-70.0 60.0)
  end
  begin
     id 8 
     name rtibia
     direction -0.34202 -0.939693 0   
     length 7.02558   
     axis 0 -0 -20   XYZ
    dof rx
    limits (-10.0 170.0)
 end
 begin
     id 9 
     name rfoot
     direction -0.16057 -0.441164 0.882945   
     length 2.10014  
     axis -90 1.13533e-015 -20   XYZ
    dof rx rz
    limits (-45.0 90.0)
           (-20.0 70.0)
  end
  begin
     id 10 
     name rtoes
     direction -1.53553e-011 -4.2192e-011 1   
     length 1.02554   
     axis -90 1.13533e-015 -20   XYZ
    dof rx
    limits (-90.0 20.0)
  end
  begin
     id 11 
     name lowerback
     direction 0.0401429 0.998861 -0.0258085   
     length 1.80848   
     axis 0 -0 0   XYZ
    dof rx ry rz
    limits (-20.0 45.0)
           (-30.0 30.0)
           (-30.0 30.0)
  end
  begin
     id 12 
     name upperback
     direction -0.0130978 0.999914 -0.000352645   
     length 1.8116   
     axis 0 -0 0   XYZ
    dof rx ry rz
    limits (-20.0 45.0)
           (-30.0 30.0)
           (-30.0 30.0)
  end
  begin
     id 13 
     name thorax
     direction -0.0300198 0.999453 0.0138573   
     length 1.81778   
     axis 0 -0 0   XYZ
    dof rx ry rz
    limits (-20.0 45.0)
           (-30.0 30.0)
           (-30.0 30.0)
  end
  begin
     id 14 
     name lowerneck
     direction -0.0401726 0.999191 -0.00173647   
     length 2.10594   
     axis 0 -0 0   XYZ
    dof rx ry rz
    limits (-20.0 45.0)
           (-30.0 30.0)
           (-30.0 30.0)
  end
  begin
     id 15 
     name upperneck
     direction 0.0119835 0.998501 0.0534085   
     length 2.07325   
     axis 0 -0 0   XYZ
    dof rx ry rz
    limits (-20.0 45.0)
           (-30.0 30.0)
           (-30.0 30.0)
  end
  begin
     id 16
     name head
     direction 0.00628309 0.999826 0.0175921  
     length 2.15096  
     axis 0 -0 0   XYZ
    dof rx ry rz
    limits (-20.0 45.0)
           (-30.0 30.0)
           (-30.0 30.0)
  end
  begin
     id 17 
     name lclavicle
     direction 0.895501 0.429681 -0.115981  
     length 4.18092  
     axis 0 -0 0   XYZ
    dof ry rz
    limits (-20.0 10.0)
           (0.0 20.0)
  end
  begin
     id 18 
     name lhumerus
     direction 1 -4.48961e-011 -3.38433e-028   
     length 5.77237   
     axis 180 -30 -90   XYZ
    dof rx ry rz
    limits (-60.0 90.0)
           (-90.0 90.0)
           (-90.0 90.0)
  end
  begin
     id 19
     name lradius
     direction 1 -4.4901e-011 1.11983e-026   
     length 2.91878   
     axis 180 -30 -90   XYZ
    dof rx
    limits (-10.0 170.0)
  end
  begin
     id 20
     name lwrist
     direction 1 -4.48934e-011 1.88176e-026   
     length 1.45939   
     axis -1.23311e-014 90 90   XYZ
    dof ry
    limits (-180.0 0.0)
 end
  begin
     id 21 
     name lhand
     direction 1 -4.4895e-011 3.76352e-026   
     length 1.06566   
     axis -2.40147e-014 90 90   XYZ
    dof rx rz
    limits (-90.0 90.0)
           (-45.0 45.0)
  end
  begin
     id 22 
     name lfingers
     direction 1 -4.49005e-011 7.52705e-026   
     length 0.859162   
     axis -4.80295e-014 90 90   XYZ
    dof rx
    limits (0.0 90.0)
  end
  begin
     id 23
     name lthumb
     direction 0.707107 -6.34885e-011 0.707107   
     length 1.23359   
     axis -90 45 -9.86935e-015   XYZ
    dof rx rz
    limits (-45.0 45.0)
           (-45.0 45.0)
  end
  begin
     id 24 
     name rclavicle
     direction -0.91006 0.40451 -0.0903492   
     length 4.23293  
     axis 0 -0 0   XYZ 
    dof ry rz
    limits (-10.0 20.0)
           (-20.0 0.0)
  end
  begin
     id 25 
     name rhumerus
     direction -1 -4.4897e-011 1.7415e-027  
     length 5.49854   
     axis 180 30 90   XYZ
    dof rx ry rz
    limits (-90.0 60.0)
           (-90.0 90.0)
           (-90.0 90.0)
  end
  begin
     id 26 
     name rradius
     direction -1 -4.48963e-011 1.21259e-026   
     length 3.1186   
     axis 180 30 90   XYZ
    dof rx
    limits (-10.0 170.0)
  end
  begin
     id 27 
     name rwrist
     direction -1 -4.48967e-011 1.88176e-026   
     length 1.5593   
     axis -1.23311e-014 -90 -90   XYZ
    dof ry
    limits (-180.0 0.0)
  end
  begin
     id 28
     name rhand
     direction -1 -4.4895e-011 3.76352e-026   
     length 0.71207   
     axis -2.40147e-014 -90 -90   XYZ
    dof rx rz
    limits (-90.0 90.0)
           (-45.0 45.0)
  end
  begin
     id 29
     name rfingers
     direction -1 -4.49005e-011 7.52705e-026   
     length 0.574089   
     axis -4.80295e-014 -90 -90   XYZ
    dof rx
    limits (0.0 90.0)
  end
  begin
     id 30
     name rthumb
     direction -0.707107 -6.34982e-011 0.707107   
     length 0.824281   
     axis -90 -45 9.86935e-015   XYZ
    dof rx rz
    limits (-45.0 45.0)
           (-45.0 45.0)
  end
:hierarchy
  begin
    root lhipjoint rhipjoint lowerback
    lhipjoint lfemur
    lfemur ltibia
    ltibia lfoot
    lfoot ltoes
    rhipjoint rfemur
    rfemur rtibia
    rtibia rfoot
    rfoot rtoes
    lowerback upperback
    upperback thorax
    thorax lowerneck lclavicle rclavicle
    lowerneck upperneck
    upperneck head
    lclavicle lhumerus
    lhumerus lradius
    lradius lwrist
    lwrist lhand lthumb
    lhand lfingers
    rclavicle rhumerus
    rhumerus rradius
    rradius rwrist
    rwrist rhand rthumb
    rhand rfingers
  end

#!OML:ASF C:\ViconDB\ViconDB\414\Spring2016\042216\male.ASF
:FULLY-SPECIFIED
:DEGREES
225
root -17.9514 17.2135 8.20177 -185.94 75.3961 173.78
lowerback 2.57357 -2.05119 6.97957
upperback -1.08223 -2.44556 0.592914
thorax -2.83534 -1.32829 -3.16782
lowerneck -3.52958 1.70589 -3.74804
upperneck -9.53102 2.92985 4.69153
head -2.57124 1.57876 2.12812
rclavicle 3.15198e-014 2.14687e-014
rhumerus -28.5449 -4.55798 -89.864
rradius 24.2214
rwrist 33.9596
rhand 12.6685 -19.6376
rfingers 7.12502
rthumb 37.6527 -45.5305
lclavicle 3.15198e-014 2.14687e-014
lhumerus -34.2403 18.7365 85.6335
lradius 31.7921
lwrist -15.1801
lhand -9.93247 15.7557
lfingers 7.12502
lthumb 16.0487 45.111
rfemur 11.2384 13.4979 22.9473
rtibia 10.9932
rfoot -25.701 -24.9553
rtoes -9.89974
lfemur -25.5857 -9.27078 -15.8345
ltibia 23.4371
lfoot -9.9746 9.06164
ltoes -10.1456
226
root -17.8292 17.1841 8.16312 -185.003 75.1343 174.711
lowerback 2.35726 -1.95627 6.97726
upperback -1.08006 -2.33972 0.537556
thorax -2.70186 -1.27243 -3.23773
lowerneck -3.54115 1.56249 -4.05308
upperneck -9.42576 2.752 4.92507
head -2.53723 1.49483 2.26388
rclavicle 1.96673e-014 -3.97569e-015
rhumerus -28.5102 -4.0375 -90.1721
rradius 24.3529
rwrist 33.6657
rhand 12.6334 -19.6228
rfingers 7.12502
rthumb 37.6195 -45.5246
lclavicle 1.96673e-014 -3.97569e-015
lhumerus -34.7333 19.6547 84.8037
lradius 31.4019
lwrist -15.1325
lhand -10.0179 15.4067
lfingers 7.12502
lthumb 15.9664 44.7687
rfemur 12.2291 12.6917 23.0989
rtibia 9.87922
rfoot -25.3508 -24.468
rtoes -10.1697
lfemur -25.4272 -9.41754 -15.6534
ltibia 22.5434
lfoot -9.82317 7.82216
ltoes -10.25
227
root -17.7005 17.1539 8.12116 -184.224 75.027 175.568
lowerback 2.22951 -1.79067 6.73244
upperback -1.06436 -2.13504 0.643817
thorax -2.57697 -1.16081 -3.00715
lowerneck -3.61115 1.37136 -4.33888
upperneck -9.23441 2.48116 4.84606
head -2.45055 1.36968 2.292
rclavicle 3.34082e-014 -1.51076e-014
rhumerus -28.4888 -3.58521 -90.1758
rradius 24.4913
rwrist 33.505
rhand 12.9724 -19.4524
rfingers 7.12502
rthumb 37.9398 -45.268
lclavicle 3.34082e-014 -1.51076e-014
lhumerus -35.2969 20.8104 84.0907
lradius 30.9435
lwrist -15.7678
lhand -9.98442 15.1874
lfingers 7.12502
lthumb 15.9987 44.5467
rfemur 13.4291 12.0334 23.288
rtibia 8.58366
rfoot -24.9211 -24.0456
rtoes -10.2937
lfemur -25.1249 -9.59107 -15.4782
ltibia 21.9877
lfoot -10.0205 6.94246
ltoes -10.2104
228
root -17.5786 17.1242 8.07611 -183.504 74.7297 176.309
lowerback 2.09892 -1.69166 6.59387
upperback -1.08026 -2.01725 0.657062
thorax -2.50183 -1.09801 -2.926
lowerneck -3.55076 1.17763 -4.63871
upperneck -9.1447 2.21979 4.92252
head -2.42476 1.2452 2.37496
rclavicle 2.5196e-014 7.95139e-016
rhumerus -28.4355 -3.0512 -90.3149
rradius 24.5582
rwrist 33.3635
rhand 12.9663 -19.4475
rfingers 7.12502
rthumb 37.934 -45.2647
lclavicle 2.5196e-014 7.95139e-016
lhumerus -35.9209 21.7791 83.2665
lradius 30.5668
lwrist -16.178
lhand -10.0221 15.3814
lfingers 7.12502
lthumb 15.9623 44.7437
rfemur 14.6896 11.2005 23.3881
rtibia 7.04158
rfoot -24.4463 -23.4969
rtoes -10.4169
lfemur -24.9416 -9.73809 -15.4487
ltibia 21.7655
lfoot -10.2889 6.2466
ltoes -10.798
229
root -17.4495 17.0932 8.03434 -182.398 74.5545 177.485
lowerback 1.94959 -1.60231 6.66937
upperback -1.06897 -1.91086 0.585463
thorax -2.4005 -1.04402 -3.05195
lowerneck -3.57198 1.03823 -4.71953
upperneck -9.00652 2.02837 4.96582
head -2.36658 1.15019 2.40557
rclavicle -2.21148e-015 1.59028e-015
rhumerus -28.404 -2.61615 -90.726
rradius 24.6718
rwrist 32.955
rhand 13.0434 -19.7962
rfingers 7.12502
rthumb 38.0069 -45.5936
lclavicle -2.21148e-015 1.59028e-015
lhumerus -36.6039 22.6944 82.2081
lradius 30.186
lwrist -16.7251
lhand -10.238 15.1555
lfingers 7.12502
lthumb 15.7544 44.5343
rfemur 16.2873 10.4818 23.63
rtibia 4.89777
rfoot -23.5399 -23.0608
rtoes -10.6761
lfemur -24.6671 -9.50554 -15.3404
ltibia 21.8764
lfoot -10.3679 5.58966
ltoes -11.7967
230
root -17.3163 17.0543 7.99399 -181.104 74.4255 179.001
lowerback 1.95676 -1.52911 6.80974
upperback -1.03501 -1.81236 0.515746
thorax -2.36633 -0.996224 -3.20759
lowerneck -3.65017 0.910927 -4.79939
upperneck -8.786 1.85651 5.08212
head -2.27314 1.06349 2.45973
rclavicle -5.41564e-014 7.95139e-016
rhumerus -28.3175 -2.25277 -91.1268
rradius 24.776
rwrist 32.2872
rhand 12.9308 -20.0927
rfingers 7.12502
rthumb 37.9005 -45.919
lclavicle -5.41564e-014 7.95139e-016
lhumerus -37.2566 23.504 81.0825
lradius 29.8428
lwrist -17.012
lhand -9.64976 15.8509
lfingers 7.12502
lthumb 16.3209 45.1841
rfemur 19.3741 9.81751 23.9276
rtibia -3.18055e-015
rfoot -20.8118 -22.8707
rtoes -11.4347
lfemur -24.3106 -9.13251 -15.2329
ltibia 22.4276
lfoot -10.1325 5.28155
ltoes -14.5022
231
root -17.1871 17.0377 7.93248 -181.386 74.2506 178.742
lowerback 1.79852 -1.43517 6.77288
upperback -1.08132 -1.70791 0.273498
thorax -2.3203 -0.947122 -3.44592
lowerneck -3.44187 0.780514 -4.8806
upperneck -8.70751 1.66793 5.14157
head -2.27586 0.965337 2.49586
rclavicle 1.62879e-014 -7.95139e-015
rhumerus -28.3402 -2.12094 -91.4318
rradius 24.7635
rwrist 32.3235
rhand 12.9952 -20.1947
rfingers 7.12502
rthumb 37.9613 -46.0044
lclavicle 1.62879e-014 -7.95139e-015
lhumerus -38.1 24.3328 79.8667
lradius 29.4966
lwrist -17.8539
lhand -9.8155 15.4297
lfingers 7.12502
lthumb 16.1613 44.7759
rfemur 19.9282 9.16284 23.6243
rtibia 4.13472e-014
rfoot -21.0803 -22.1703
rtoes -11.7586
lfemur -24.1905 -8.9406 -15.6985
ltibia 23.2697
lfoot -9.27969 4.75813
ltoes -16.4492
232
root -17.0539 17.0298 7.89025 -180.243 74.2517 180.011
lowerback 1.87389 -1.36134 6.84083
upperback -1.1161 -1.60294 0.187172
thorax -2.39191 -0.900169 -3.57593
lowerneck -3.40731 0.71601 -4.83373
upperneck -8.66352 1.57546 5.13785
head -2.26132 0.916675 2.48641
rclavicle -2.07109e-014 -4.37326e-015
rhumerus -28.212 -2.07356 -91.7176
rradius 24.6213
rwrist 32.441
rhand 12.8672 -19.8539
rfingers 7.12502
rthumb 37.8405 -45.6964
lclavicle -2.07109e-014 -4.37326e-015
lhumerus -38.9386 25.1752 78.5869
lradius 29.1378
lwrist -18.6405
lhand -9.78195 15.352
lfingers 7.12502
lthumb 16.1936 44.6956
rfemur 20.4895 8.63636 23.8881
rtibia -2.54444e-014
rfoot -20.9656 -21.5506
rtoes -12.5433
lfemur -24.1862 -9.05661 -15.4833
ltibia 24.2926
lfoot -7.69553 5.4221
ltoes -12.9484
233
root -16.9282 17.0269 7.83548 -179.719 74.3325 180.549
lowerback 1.84257 -1.26162 6.94191
upperback -1.10908 -1.47607 0.0063159
thorax -2.36045 -0.839963 -3.82685
lowerneck -3.27811 0.604172 -4.90471
upperneck -8.88489 1.43599 5.17612
head -2.35167 0.849525 2.51586
rclavicle 2.25124e-014 -2.14687e-014
rhumerus -27.9494 -2.14649 -92.0181
rradius 24.3478
rwrist 33.2729
rhand 12.5972 -19.6114
rfingers 7.12502
rthumb 37.5854 -45.5223
lclavicle 2.25124e-014 -2.14687e-014
lhumerus -39.6155 25.9147 77.4326
lradius 28.8734
lwrist -18.9736
lhand -9.92828 15.6222
lfingers 7.12502
lthumb 16.0527 44.9773
rfemur 20.9341 8.23058 23.8332
rtibia 4.45278e-014
rfoot -20.5839 -20.9266
rtoes -13.6879
lfemur -24.248 -9.70968 -15.4241
ltibia 25.3179
lfoot -6.97035 8.07705
ltoes -13.5097
234
root -16.8072 17.0296 7.78101 -179.984 74.2793 180.321
lowerback 1.87954 -1.22284 6.70447
upperback -1.10546 -1.43293 -0.107897
thorax -2.36853 -0.81688 -3.81342
lowerneck -3.23476 0.551605 -5.07368
upperneck -9.01847 1.36251 5.04068
head -2.40015 0.821988 2.50324
rclavicle -3.81294e-014 -5.56597e-015
rhumerus -27.6591 -2.41335 -92.0532
rradius 23.9864
rwrist 33.6758
rhand 12.1784 -19.371
rfingers 7.12502
rthumb 37.1894 -45.3863
lclavicle -3.81294e-014 -5.56597e-015
lhumerus -40.3261 27.0068 76.2361
lradius 28.3287
lwrist -19.7739
lhand -10.2702 15.4936
lfingers 7.12502
lthumb 15.7234 44.8749
rfemur 21.425 7.71125 23.4992
rtibia 9.54166e-015
rfoot -20.2353 -20.1184
rtoes -14.6126
lfemur -24.176 -10.3522 -15.5539
ltibia 26.2436
lfoot -8.34847 8.26183
ltoes -14.6018
235
root -16.6958 17.0334 7.72735 -180.814 74.1432 179.506
lowerback 2.01948 -1.21985 6.46439
upperback -1.07712 -1.43548 -0.361309
thorax -2.41813 -0.819098 -3.93912
lowerneck -3.34662 0.47407 -5.20768
upperneck -9.07979 1.26759 4.99385
head -2.39623 0.783518 2.51345
rclavicle 4.42172e-014 -4.37326e-015
rhumerus -27.2533 -3.21151 -92.0763
rradius 23.5161
rwrist 34.6473
rhand 11.837 -19.3245
rfingers 7.12502
rthumb 36.8665 -45.4234
lclavicle 4.42172e-014 -4.37326e-015
lhumerus -41.0325 28.1513 74.7841
lradius 27.7852
lwrist -20.9337
lhand -10.1009 15.3798
lfingers 7.12502
lthumb 15.8864 44.7482
rfemur 21.88 7.11815 22.9848
rtibia -3.18055e-014
rfoot -19.5959 -19.4399
rtoes -16.1298
lfemur -23.9876 -10.5202 -16.0042
ltibia 26.9137
lfoot -9.75233 7.26391
ltoes -15.3366
236
root -16.5859 17.0437 7.67636 -181.531 74.0929 178.79
lowerback 2.13576 -1.20324 6.2269
upperback -1.05444 -1.42016 -0.573425
thorax -2.45722 -0.811334 -4.02464
lowerneck -3.43993 0.416041 -5.40691
upperneck -9.12215 1.19118 4.86941
head -2.3902 0.757042 2.50901
rclavicle -1.62755e-014 -8.34896e-015
rhumerus -26.9131 -4.1947 -91.9944
rradius 23.0646
rwrist 35.9416
rhand 11.5131 -19.3733
rfingers 7.12502
rthumb 36.56 -45.5502
lclavicle -1.62755e-014 -8.34896e-015
lhumerus -41.8759 29.6937 73.1183
lradius 27.1147
lwrist -22.5828
lhand -10.3976 15.3735
lfingers 7.12502
lthumb 15.6007 44.7644
rfemur 22.2658 6.62617 22.4598
rtibia 6.36111e-014
rfoot -18.9316 -18.617
rtoes -17.3723
lfemur -23.7683 -10.705 -16.3924
ltibia 27.4066
lfoot -9.99303 7.70403
ltoes -15.3239
